# xmcd
#
# Track frame offsets:
#	150
#	19615
#	36430
#	60202
#	83547
#	109102
#	127947
#	147270
#	173847
#	190082
#	210682
#
# Disc length: 3113 seconds
#
# Revision: 1
# Processed by: cddbd v1.5.1PL0 Copyright (c) Steve Scherf et al.
# Submitted via: CDex 1.50Beta5
#
DISCID=880c270b
DTITLE=イースタンユース - EASTERN YOUTH
DYEAR=1900
DGENRE=
TTITLE0=守るべきものは何か
TTITLE1=手懐けられた犬
TTITLE2=燃え盛る大地
TTITLE3=街は陽炎の中に在った
TTITLE4=飼い主を噛み殺せ
TTITLE5=散り行く花
TTITLE6=今、警鐘を鳴らせ
TTITLE7=昇る朝日浴びて
TTITLE8=故郷
TTITLE9=名も無き男
TTITLE10=死刑台に送り込め
EXTD=
EXTT0=
EXTT1=
EXTT2=
EXTT3=
EXTT4=
EXTT5=
EXTT6=
EXTT7=
EXTT8=
EXTT9=
EXTT10=
PLAYORDER=
